<svg width="50" height="50" viewBox="0 0 50 50" fill="none" xmlns="http://www.w3.org/2000/svg">
<g clip-path="url(#clip0)">
<path d="M49.527 11.8187L47.3675 9.65933C47.0619 9.35366 46.6556 9.1854 46.2234 9.1854C45.7913 9.1854 45.3849 9.35366 45.0794 9.65933L44.9903 9.74849V8.29819C44.9903 6.48511 43.5152 5.01001 41.7021 5.01001H3.28818C1.4751 5.01011 0 6.48511 0 8.29819V41.7017C0 43.5148 1.4751 44.9899 3.28818 44.9899H41.7021C43.5152 44.9899 44.9903 43.5148 44.9903 41.7017V18.6436L49.527 14.107C50.1577 13.4762 50.1577 12.4497 49.527 11.8187ZM43.4245 41.7017C43.4245 42.6514 42.6519 43.4241 41.7021 43.4241H3.28818C2.33848 43.4241 1.56582 42.6514 1.56582 41.7017V8.29819C1.56582 7.34849 2.33848 6.57583 3.28818 6.57583H41.7021C42.6519 6.57583 43.4245 7.34849 43.4245 8.29819V11.3143L39.9798 14.759V10.8035C39.9798 10.4561 39.7509 10.1502 39.4175 10.0523C39.0841 9.95464 38.7263 10.0879 38.5384 10.3801L35.4391 15.2013L32.3397 10.3801C32.152 10.0879 31.7939 9.95464 31.4606 10.0523C31.1273 10.1502 30.8983 10.4561 30.8983 10.8035V19.1543C30.8983 19.5867 31.2488 19.9373 31.6812 19.9373C32.1137 19.9373 32.4642 19.5868 32.4642 19.1543V13.4691L34.7806 17.0725C34.9246 17.2965 35.1728 17.432 35.4392 17.432C35.7056 17.432 35.9537 17.2965 36.0978 17.0725L38.4142 13.4691V16.3248L23.8411 30.8978H19.1548C18.7225 30.8978 18.3719 31.2483 18.3719 31.6807C18.3719 32.1131 18.7224 32.4636 19.1548 32.4636H22.7133L20.3263 37.5786H12.474C12.0417 37.5786 11.6911 37.929 11.6911 38.3615C11.6911 38.7939 12.0416 39.1444 12.474 39.1444H20.8249C20.825 39.1444 20.825 39.1444 20.8251 39.1444C20.9371 39.1444 21.0501 39.1204 21.1559 39.0708L27.419 36.148C27.5018 36.1093 27.577 36.0567 27.6416 35.9921L31.1701 32.4636H37.5266C37.9589 32.4636 38.3095 32.1131 38.3095 31.6807C38.3095 31.2483 37.959 30.8978 37.5266 30.8978H32.7358L43.4243 20.2094V41.7017H43.4245ZM24.2503 32.8728L26.3136 34.9361L22.4449 36.7415L24.2503 32.8728ZM27.5057 33.9138L25.2726 31.6807L43.7183 13.235L45.9515 15.4682L27.5057 33.9138ZM48.4198 12.9998L47.0586 14.361L44.8254 12.1278L46.1866 10.7666C46.2069 10.7463 46.24 10.7463 46.2604 10.7666L48.4198 12.9258C48.44 12.9463 48.44 12.9794 48.4198 12.9998Z" fill="white"/>
<path d="M10.8039 18.3715H6.57628V15.7618H9.96886C10.4012 15.7618 10.7518 15.4113 10.7518 14.9789C10.7518 14.5465 10.4013 14.196 9.96886 14.196H6.57628V11.5863H10.8039C11.2362 11.5863 11.5868 11.2358 11.5868 10.8034C11.5868 10.371 11.2363 10.0205 10.8039 10.0205H5.79347C5.36115 10.0205 5.01056 10.371 5.01056 10.8034V19.1543C5.01056 19.5866 5.36105 19.9372 5.79347 19.9372H10.804C11.2363 19.9372 11.5869 19.5867 11.5869 19.1543C11.5869 18.7219 11.2363 18.3715 10.8039 18.3715Z" fill="white"/>
<path d="M20.6012 18.6653L17.6521 14.9789L20.6012 11.2925C20.8712 10.9549 20.8165 10.4622 20.4789 10.1921C20.1413 9.92197 19.6485 9.97676 19.3785 10.3144L16.6495 13.7258L13.9204 10.3145C13.6503 9.97685 13.1574 9.92207 12.82 10.1923C12.4824 10.4623 12.4276 10.9551 12.6978 11.2927L15.6469 14.9791L12.6978 18.6655C12.4277 19.003 12.4825 19.4956 12.8201 19.7657C12.9645 19.8812 13.1371 19.9373 13.3087 19.9373C13.5384 19.9373 13.7659 19.8367 13.9205 19.6435L16.6496 16.2322L19.3787 19.6435C19.5333 19.8368 19.7609 19.9373 19.9905 19.9373C20.162 19.9373 20.3348 19.8812 20.4791 19.7657C20.8165 19.4957 20.8713 19.003 20.6012 18.6653Z" fill="white"/>
<path d="M29.9436 19.0009L28.4748 11.657C28.2852 10.7088 27.4458 10.0206 26.4787 10.0206H25.1922C24.2253 10.0206 23.3857 10.7088 23.1962 11.657L21.7273 19.0009C21.6426 19.4248 21.9176 19.8372 22.3415 19.9221C22.7654 20.0068 23.1778 19.7319 23.2627 19.3079L23.6379 17.4321H28.0328L28.408 19.3079C28.4824 19.6801 28.8094 19.9375 29.1749 19.9375C29.2258 19.9375 29.2774 19.9325 29.3293 19.9222C29.7534 19.8372 30.0284 19.4248 29.9436 19.0009ZM23.9512 15.8661L24.7317 11.9639C24.7754 11.7451 24.9691 11.5864 25.1922 11.5864H26.4787C26.7018 11.5864 26.8956 11.7451 26.9393 11.9639L27.7198 15.8661H23.9512Z" fill="white"/>
<path d="M7.46359 22.547C6.11095 22.547 5.01056 23.6474 5.01056 25C5.01056 26.3527 6.11095 27.4531 7.46359 27.4531C8.81622 27.4531 9.91661 26.3527 9.91661 25C9.91671 23.6474 8.81622 22.547 7.46359 22.547ZM7.46359 25.8873C6.97433 25.8873 6.57628 25.4893 6.57628 25C6.57628 24.5108 6.97433 24.1127 7.46359 24.1127C7.95284 24.1127 8.35089 24.5108 8.35089 25C8.35089 25.4893 7.95284 25.8873 7.46359 25.8873Z" fill="white"/>
<path d="M7.46359 29.2277C6.11095 29.2277 5.01056 30.3281 5.01056 31.6807C5.01056 33.0333 6.11095 34.1337 7.46359 34.1337C8.81622 34.1337 9.91661 33.0333 9.91661 31.6807C9.91661 30.3281 8.81622 29.2277 7.46359 29.2277ZM7.46359 32.568C6.97433 32.568 6.57628 32.1699 6.57628 31.6807C6.57628 31.1914 6.97433 30.7934 7.46359 30.7934C7.95284 30.7934 8.35089 31.1914 8.35089 31.6807C8.35089 32.1699 7.95284 32.568 7.46359 32.568Z" fill="white"/>
<path d="M7.46359 35.9083C6.11095 35.9083 5.01056 37.0087 5.01056 38.3614C5.01056 39.714 6.11095 40.8144 7.46359 40.8144C8.81622 40.8144 9.91661 39.714 9.91661 38.3614C9.91671 37.0088 8.81622 35.9083 7.46359 35.9083ZM7.46359 39.2487C6.97433 39.2487 6.57628 38.8506 6.57628 38.3614C6.57628 37.8721 6.97433 37.4741 7.46359 37.4741C7.95284 37.4741 8.35089 37.8721 8.35089 38.3614C8.35089 38.8507 7.95284 39.2487 7.46359 39.2487Z" fill="white"/>
<path d="M25.8356 24.2172H12.4741C12.0418 24.2172 11.6912 24.5677 11.6912 25.0001C11.6912 25.4324 12.0417 25.783 12.4741 25.783H25.8356C26.2679 25.783 26.6185 25.4325 26.6185 25.0001C26.6184 24.5677 26.2679 24.2172 25.8356 24.2172Z" fill="white"/>
<path d="M15.8145 30.8978H12.4741C12.0418 30.8978 11.6912 31.2483 11.6912 31.6807C11.6912 32.1132 12.0417 32.4636 12.4741 32.4636H15.8145C16.2468 32.4636 16.5974 32.1132 16.5974 31.6807C16.5974 31.2483 16.2468 30.8978 15.8145 30.8978Z" fill="white"/>
</g>
<defs>
<clipPath id="clip0">
<rect width="50" height="50" fill="white"/>
</clipPath>
</defs>
</svg>
